# xmcd
#
# Track frame offsets:
#	150
#	15816
#	30536
#	47669
#	75121
#	96086
#	121518
#	138306
#	149960
#	249714
#	270956
#
# Disc length: 4068 seconds
#
# Revision: 1
# Processed by: cddbd v1.5.2PL0 Copyright (c) Steve Scherf et al.
# Submitted via: audiograbber 1.83.01
#
DISCID=7f0fe20b
DTITLE=Grateful Dead - 70-11-20A The Palestra, Uni of Rochester, Rochester NY
DYEAR=1900
DGENRE=
TTITLE0=Cold Rain and Snow
TTITLE1=Me and My Uncle
TTITLE2=Next Time You See Me
TTITLE3=China Cat Sunflower
TTITLE4=I Know You Rider
TTITLE5=Sugar Magnolia
TTITLE6=Friend Of The Devil
TTITLE7=Mama Tried
TTITLE8=Good Lovin'
TTITLE9=Cumberland Blues
TTITLE10=Candyman
EXTD=
EXTT0=
EXTT1=
EXTT2=
EXTT3=
EXTT4=
EXTT5=
EXTT6=
EXTT7=
EXTT8=
EXTT9=
EXTT10=
PLAYORDER=
